<svg width="24" height="24" viewBox="0 0 24 24" fill="none" xmlns="http://www.w3.org/2000/svg">
<g clip-path="url(#clip0_1994_89)">
<path d="M16.8867 17.8596C17.5 19 18.3398 19.9958 19.582 19.9958H20.0625C20.5781 19.9958 21 19.5461 21 18.9964C21 18.4468 20.5781 17.997 20.0625 17.997H19.582C19.166 17.997 18.8027 17.7097 18.6855 17.285L17.8125 15.193C17.6133 14.4872 17.0039 14 16.3125 14C15.6211 14 15.0117 14.481 14.8125 15.193L14.1328 16.6041C13.6992 16.2168 13.1484 15.9982 12.5625 15.9982C11.6309 15.9982 10.7812 16.5604 10.3652 17.4474L10.1074 17.997H9.9375C9.42188 17.997 9 18.4468 9 18.9964C9 19.5461 9.42188 19.9958 9.9375 19.9958H10.6875C11.0449 19.9958 11.3672 19.7835 11.5254 19.4462L12.041 18.3406C12.1406 18.1282 12.3398 17.997 12.5566 17.997C12.7734 17.997 12.9785 18.1282 13.0723 18.3406L13.5879 19.4462C13.7578 19.8147 14.127 20.0333 14.5078 19.9958C14.8887 19.9584 15.2168 19.6773 15.3223 19.29L16.3125 16.8108L16.8867 17.8596Z" fill="#454646"/>
<path d="M12.06 7.19L3 16.25V20H6.75L15.81 10.94L12.06 7.19ZM5.92 18H5V17.08L12.06 10.02L12.98 10.94L5.92 18Z" fill="#454646"/>
<path d="M18.71 8.04C19.1 7.65 19.1 7.02 18.71 6.63L16.37 4.29C16.17 4.09 15.92 4 15.66 4C15.41 4 15.15 4.1 14.96 4.29L13.13 6.12L16.88 9.87L18.71 8.04Z" fill="#454646"/>
</g>
<defs>
<clipPath id="clip0_1994_89">
<rect width="24" height="24" fill="white"/>
</clipPath>
</defs>
</svg>
