<svg width="14" height="14" viewBox="0 0 1024 1024" xmlns="http://www.w3.org/2000/svg">
    <path d="M950.4 425.6c-12.8-12.8-32-12.8-44.8 0L508.8 832c-86.4 86.4-230.4 86.4-316.8 0s-86.4-230.4 0-316.8L521.6 169.6c25.6-28.8 64-41.6 102.4-41.6s73.6 16 102.4 41.6c28.8 28.8 41.6 64 41.6 102.4s-16 73.6-41.6 102.4L396.8 716.8c-25.6 25.6-67.2 25.6-89.6 0-12.8-12.8-19.2-28.8-19.2-44.8s6.4-32 19.2-44.8l323.2-316.8c12.8-12.8 12.8-32 0-44.8-12.8-12.8-32-12.8-44.8 0L262.4 582.4C236.8 604.8 224 636.8 224 672c0 35.2 12.8 67.2 38.4 89.6 48 48 131.2 48 182.4 0l329.6-342.4c38.4-38.4 60.8-92.8 60.8-147.2s-22.4-108.8-60.8-147.2-96-60.8-150.4-60.8-108.8 22.4-147.2 60.8L147.2 467.2c-112 112-112 294.4 0 406.4C204.8 931.2 278.4 960 352 960c73.6 0 147.2-28.8 204.8-83.2l393.6-406.4c12.8-12.8 12.8-32 0-44.8z" fill="currentColor" />
</svg>
