<svg width="25" height="20" viewBox="0 0 25 20" fill="none" xmlns="http://www.w3.org/2000/svg">
    <path d="M16.5 0.0100098H12.1V2.21001H16.5C18.315 2.21001 19.8 3.69501 19.8 5.51001C19.8 7.32501 18.315 8.81001 16.5 8.81001H12.1V11.01H16.5C19.536 11.01 22 8.54601 22 5.51001C22 2.47401 19.536 0.0100098 16.5 0.0100098ZM9.9 8.81001H5.5C3.685 8.81001 2.2 7.32501 2.2 5.51001C2.2 3.69501 3.685 2.21001 5.5 2.21001H9.9V0.0100098H5.5C2.464 0.0100098 0 2.47401 0 5.51001C0 8.54601 2.464 11.01 5.5 11.01H9.9V8.81001ZM6.6 4.41001H15.4V6.61001H6.6V4.41001Z" fill="#4A4A4A"/>
    <path fill-rule="evenodd" clip-rule="evenodd" d="M13.5997 7.20028C14.0189 6.74371 14.581 6.31586 15.2963 6.22243C16.0828 6.11973 16.7416 6.45673 17.2216 6.912C17.6975 7.36334 18.0647 7.9894 18.0286 8.76365C18.0194 8.95963 17.985 9.1464 17.9313 9.32368L20.2387 7.00639C20.6579 6.54982 21.2199 6.12197 21.9353 6.02855C22.7218 5.92584 23.3806 6.26285 23.8606 6.71811C24.3365 7.16946 24.7037 7.79552 24.6675 8.56976C24.6336 9.2957 24.2538 9.89527 23.8276 10.3543L23.8144 10.3685L18.0571 16.1932C17.5512 16.7418 16.8798 16.9665 16.1988 16.9665C15.3425 16.9665 14.6672 16.5341 14.1863 15.9447L13.0229 14.7636L11.4182 16.3871C10.9122 16.9357 10.2408 17.1604 9.55985 17.1604C8.70528 17.1604 8.03096 16.7298 7.55028 16.1422L4.75017 13.3375L4.7331 13.319C4.34089 12.8928 4.01787 12.3336 4.00071 11.6547C3.98339 10.9691 4.2836 10.394 4.66893 9.95342C5.07271 9.49175 5.65419 9.10352 6.40359 9.10352C7.11158 9.10352 7.69728 9.45317 8.13557 9.83903L8.16531 9.86521L9.55826 11.2591L13.5997 7.20028Z" fill="white"/>
    <path d="M13.5128 13.4934L15.1833 11.7842L16.1988 12.821L21.1366 7.86194C21.7921 7.1381 22.4156 7.05667 23.0071 7.61765C23.5987 8.17864 23.5692 8.80949 22.9187 9.51021L17.1573 15.339C16.9263 15.597 16.6067 15.726 16.1988 15.726C15.7909 15.726 15.4296 15.524 15.115 15.12L13.5128 13.4934Z" fill="#2ECF80"/>
    <path d="M5.64561 12.4788C5.11983 11.9075 5.10543 11.3378 5.60241 10.7696C6.09939 10.2013 6.6706 10.2013 7.31603 10.7696L9.55981 13.0149L14.4976 8.05582C15.1531 7.33198 15.7766 7.25055 16.3682 7.81154C16.9597 8.37252 16.9302 9.00338 16.2797 9.70409L10.5184 15.5329C10.2873 15.7909 9.96776 15.9199 9.55981 15.9199C9.15187 15.9199 8.7906 15.7179 8.47601 15.3138L5.64561 12.4788Z" fill="#2ECF80"/>
</svg>
