<svg width="20" height="20" viewBox="0 0 20 20" fill="none" xmlns="http://www.w3.org/2000/svg">
    <g clip-path="url(#clip0_2372_85)">
        <mask id="mask0_2372_85" style="mask-type:alpha" maskUnits="userSpaceOnUse" x="1" y="1" width="15" height="15">
            <path d="M13.6621 1C14.9532 1 16 2.07491 16 3.40039V7.91602C15.8412 7.83322 15.6779 7.75692 15.5088 7.69043C15.4467 7.25469 15.2434 6.86624 14.917 6.55762C14.5232 6.18543 14.0311 6 13.5 6C12.9689 6 12.4768 6.18543 12.083 6.55762C11.7565 6.86628 11.5523 7.25464 11.4902 7.69043C10.6954 8.00299 10.0128 8.4959 9.46094 9.16895C8.74222 10.0455 8.375 11.0686 8.375 12.2002V16H3.33789C2.04684 16 1 14.9251 1 13.5996V3.40039C1 2.07491 2.04684 1 3.33789 1H13.6621ZM10.4316 9.58008C10.4404 9.57086 10.4482 9.56087 10.457 9.55176C10.4727 9.5355 10.49 9.52083 10.5059 9.50488C10.481 9.52978 10.4559 9.55442 10.4316 9.58008ZM10.6533 9.36328C10.6785 9.34051 10.7038 9.31795 10.7295 9.2959C10.7038 9.31796 10.6785 9.3405 10.6533 9.36328Z" fill="#172226"/>
        </mask>
        <g mask="url(#mask0_2372_85)">
            <path d="M13.6623 1H3.33766C2.04661 1 1 2.07452 1 3.4V13.6C1 14.9255 2.04661 16 3.33766 16H13.6623C14.9534 16 16 14.9255 16 13.6V3.4C16 2.07452 14.9534 1 13.6623 1Z" fill="#172226"/>
            <path d="M12.0428 4.20001L7.43701 12.9852H9.26763L13.8571 4.20001H12.0428Z" fill="#3DF2B6"/>
            <path d="M7.9678 4.20001L4.84959 10.1472V6.71945H3.15235L3.14282 6.73761V12.9838H3.36196V12.9852H5.19258L9.7821 4.20001H7.9678Z" fill="#3DF2B6"/>
        </g>
    </g>
    <path d="M9 17.35V16.25H10.125V12.4C10.125 11.6392 10.3594 10.9631 10.8281 10.3719C11.2969 9.78063 11.9062 9.39333 12.6562 9.21V8.825C12.6562 8.59583 12.7383 8.40104 12.9023 8.24062C13.0664 8.08021 13.2656 8 13.5 8C13.7344 8 13.9336 8.08021 14.0977 8.24062C14.2617 8.40104 14.3438 8.59583 14.3438 8.825V9.21C15.0938 9.39333 15.7031 9.78063 16.1719 10.3719C16.6406 10.9631 16.875 11.6392 16.875 12.4V16.25H18V17.35H9ZM13.5 19C13.1906 19 12.9258 18.8923 12.7055 18.6769C12.4852 18.4615 12.375 18.2025 12.375 17.9H14.625C14.625 18.2025 14.5148 18.4615 14.2945 18.6769C14.0742 18.8923 13.8094 19 13.5 19Z" fill="#172226"/>
    <defs>
        <clipPath id="clip0_2372_85">
            <rect width="15" height="15" fill="white" transform="translate(1 1)"/>
        </clipPath>
    </defs>
</svg>
