<svg width="58" height="30" viewBox="0 0 58 30" fill="none" xmlns="http://www.w3.org/2000/svg">
    <path d="M7.1875 20.2344C8.17708 20.7552 9.11458 21.0156 10 21.0156C10.8854 21.0156 11.8099 20.7552 12.7734 20.2344C13.763 19.7135 14.5052 19.0755 15 18.3203C14.974 17.5911 14.388 16.9792 13.2422 16.4844C12.0964 15.9896 11.0156 15.7422 10 15.7422C8.98438 15.7422 7.90365 15.9896 6.75781 16.4844C5.61198 16.9531 5.02604 17.5651 5 18.3203C5.49479 19.0755 6.22396 19.7135 7.1875 20.2344ZM11.7578 9.92188C11.263 9.42708 10.6771 9.17969 10 9.17969C9.32292 9.17969 8.73698 9.42708 8.24219 9.92188C7.7474 10.4167 7.5 11.0026 7.5 11.6797C7.5 12.3568 7.7474 12.9427 8.24219 13.4375C8.73698 13.9323 9.32292 14.1797 10 14.1797C10.6771 14.1797 11.263 13.9323 11.7578 13.4375C12.2526 12.9427 12.5 12.3568 12.5 11.6797C12.5 11.0026 12.2526 10.4167 11.7578 9.92188ZM4.10156 9.14062C5.74219 7.5 7.70833 6.67969 10 6.67969C12.2917 6.67969 14.2448 7.5 15.8594 9.14062C17.5 10.7552 18.3203 12.7083 18.3203 15C18.3203 17.2917 17.5 19.2578 15.8594 20.8984C14.2448 22.513 12.2917 23.3203 10 23.3203C7.70833 23.3203 5.74219 22.513 4.10156 20.8984C2.48698 19.2578 1.67969 17.2917 1.67969 15C1.67969 12.7083 2.48698 10.7552 4.10156 9.14062Z" fill="white"/>
    <path d="M30.56 7.68H33.14L27.2 22H24.62L30.56 7.68Z" fill="white"/>
    <path d="M55.5 16.6797V8.32031H40.5V16.6797H55.5ZM55.5 6.67969C55.9427 6.67969 56.3333 6.84896 56.6719 7.1875C57.0104 7.5 57.1797 7.8776 57.1797 8.32031V18.3203C57.1797 18.763 57.0104 19.1536 56.6719 19.4922C56.3333 19.8307 55.9427 20 55.5 20H49.6797L51.3203 22.5V23.3203H44.6797V22.5L46.3203 20H40.5C40.0573 20 39.6667 19.8307 39.3281 19.4922C38.9896 19.1536 38.8203 18.763 38.8203 18.3203V8.32031C38.8203 7.8776 38.9896 7.5 39.3281 7.1875C39.6667 6.84896 40.0573 6.67969 40.5 6.67969H55.5Z" fill="white"/>
</svg>
    