<svg width="12" height="17" viewBox="0 0 12 17" fill="none" xmlns="http://www.w3.org/2000/svg">
    <path d="M10.4141 8.42969H11.8203C11.8203 9.83594 11.3255 11.0729 10.3359 12.1406C9.3724 13.1823 8.20052 13.8073 6.82031 14.0156V16.75H5.17969V14.0156C3.79948 13.8073 2.61458 13.1823 1.625 12.1406C0.661458 11.0729 0.179688 9.83594 0.179688 8.42969H1.58594C1.58594 9.65365 2.01562 10.6693 2.875 11.4766C3.76042 12.2578 4.80208 12.6484 6 12.6484C7.19792 12.6484 8.22656 12.2578 9.08594 11.4766C9.97135 10.6693 10.4141 9.65365 10.4141 8.42969ZM7.75781 10.1875C7.26302 10.6823 6.67708 10.9297 6 10.9297C5.32292 10.9297 4.73698 10.6823 4.24219 10.1875C3.7474 9.69271 3.5 9.10677 3.5 8.42969V3.42969C3.5 2.7526 3.7474 2.16667 4.24219 1.67188C4.73698 1.17708 5.32292 0.929688 6 0.929688C6.67708 0.929688 7.26302 1.17708 7.75781 1.67188C8.2526 2.16667 8.5 2.7526 8.5 3.42969V8.42969C8.5 9.10677 8.2526 9.69271 7.75781 10.1875Z" fill="#007A50"/>
</svg>
    