<svg width="16" height="11" viewBox="0 0 16 11" fill="none" xmlns="http://www.w3.org/2000/svg">
    <path d="M12.1797 4L15.5 0.679688V9.82031L12.1797 6.5V9.42969C12.1797 9.66406 12.0885 9.85938 11.9062 10.0156C11.75 10.1719 11.5547 10.25 11.3203 10.25H1.32031C1.08594 10.25 0.890625 10.1719 0.734375 10.0156C0.578125 9.85938 0.5 9.66406 0.5 9.42969V1.07031C0.5 0.835938 0.578125 0.640625 0.734375 0.484375C0.890625 0.328125 1.08594 0.25 1.32031 0.25H11.3203C11.5547 0.25 11.75 0.328125 11.9062 0.484375C12.0885 0.640625 12.1797 0.835938 12.1797 1.07031V4Z" fill="#007A50"/>
</svg>
    