<svg xmlns="http://www.w3.org/2000/svg" width="18" height="18" viewBox="0 0 18 18" fill="none">
    <path d="M12.7617 12.7617V11.6367C12.7617 11.0742 12.3281 10.6171 11.4609 10.2656C10.6172 9.9141 9.79688 9.7383 9 9.7383C8.20313 9.7383 7.37109 9.9141 6.50391 10.2656C5.66016 10.6171 5.23829 11.0742 5.23829 11.6367V12.7617H12.7617ZM10.1954 5.55468C9.86715 5.22656 9.46875 5.0625 9 5.0625C8.53125 5.0625 8.13285 5.22656 7.80465 5.55468C7.47657 5.88281 7.3125 6.28125 7.3125 6.75C7.3125 7.21875 7.47657 7.61715 7.80465 7.94535C8.13285 8.2734 8.53125 8.4375 9 8.4375C9.46875 8.4375 9.86715 8.2734 10.1954 7.94535C10.5234 7.61715 10.6875 7.21875 10.6875 6.75C10.6875 6.28125 10.5234 5.88281 10.1954 5.55468ZM15.0117 2.98828C15.4102 2.98828 15.75 3.14062 16.0313 3.44531C16.3359 3.75 16.4883 4.10156 16.4883 4.5V13.5C16.4883 13.8984 16.3359 14.25 16.0313 14.5546C15.75 14.8594 15.4102 15.0117 15.0117 15.0117H2.98829C2.58984 15.0117 2.23829 14.8594 1.93359 14.5546C1.65234 14.25 1.51172 13.8984 1.51172 13.5V4.5C1.51172 4.10156 1.65234 3.75 1.93359 3.44531C2.23829 3.14062 2.58984 2.98828 2.98829 2.98828H15.0117Z" fill="#fff"/>
</svg>