<svg width="20" height="18" viewBox="0 0 20 18" fill="none" xmlns="http://www.w3.org/2000/svg">
    <path d="M17.5 10.9297V2.57031H2.5V10.9297H17.5ZM17.5 0.929688C17.9427 0.929688 18.3333 1.09896 18.6719 1.4375C19.0104 1.75 19.1797 2.1276 19.1797 2.57031V12.5703C19.1797 13.013 19.0104 13.4036 18.6719 13.7422C18.3333 14.0807 17.9427 14.25 17.5 14.25H11.6797L13.3203 16.75V17.5703H6.67969V16.75L8.32031 14.25H2.5C2.05729 14.25 1.66667 14.0807 1.32812 13.7422C0.989583 13.4036 0.820312 13.013 0.820312 12.5703V2.57031C0.820312 2.1276 0.989583 1.75 1.32812 1.4375C1.66667 1.09896 2.05729 0.929688 2.5 0.929688H17.5Z" fill="#007A50"/>
</svg>    