<svg width="17" height="18" viewBox="0 0 17 18" fill="none" xmlns="http://www.w3.org/2000/svg">
    <path d="M5.6875 14.2344C6.67708 14.7552 7.61458 15.0156 8.5 15.0156C9.38542 15.0156 10.3099 14.7552 11.2734 14.2344C12.263 13.7135 13.0052 13.0755 13.5 12.3203C13.474 11.5911 12.888 10.9792 11.7422 10.4844C10.5964 9.98958 9.51562 9.74219 8.5 9.74219C7.48438 9.74219 6.40365 9.98958 5.25781 10.4844C4.11198 10.9531 3.52604 11.5651 3.5 12.3203C3.99479 13.0755 4.72396 13.7135 5.6875 14.2344ZM10.2578 3.92188C9.76302 3.42708 9.17708 3.17969 8.5 3.17969C7.82292 3.17969 7.23698 3.42708 6.74219 3.92188C6.2474 4.41667 6 5.0026 6 5.67969C6 6.35677 6.2474 6.94271 6.74219 7.4375C7.23698 7.93229 7.82292 8.17969 8.5 8.17969C9.17708 8.17969 9.76302 7.93229 10.2578 7.4375C10.7526 6.94271 11 6.35677 11 5.67969C11 5.0026 10.7526 4.41667 10.2578 3.92188ZM2.60156 3.14062C4.24219 1.5 6.20833 0.679688 8.5 0.679688C10.7917 0.679688 12.7448 1.5 14.3594 3.14062C16 4.75521 16.8203 6.70833 16.8203 9C16.8203 11.2917 16 13.2578 14.3594 14.8984C12.7448 16.513 10.7917 17.3203 8.5 17.3203C6.20833 17.3203 4.24219 16.513 2.60156 14.8984C0.986979 13.2578 0.179688 11.2917 0.179688 9C0.179688 6.70833 0.986979 4.75521 2.60156 3.14062Z" fill="#007A50"/>
</svg>
    