<svg width="20" height="20" viewBox="0 0 20 20" fill="none" xmlns="http://www.w3.org/2000/svg">
    <g clip-path="url(#clip0_2377_122)">
        <mask id="mask0_2377_122" style="mask-type:alpha" maskUnits="userSpaceOnUse" x="1" y="1" width="15" height="15">
            <path d="M13.6621 1C14.9532 1 16 2.07491 16 3.40039V6.50195C15.1732 6.17896 14.2741 6 13.333 6C9.28318 6.00017 6.00017 9.28318 6 13.333C6 14.2742 6.17986 15.1731 6.50293 16H3.33789C2.04684 16 1 14.9251 1 13.5996V3.40039C1 2.07491 2.04684 1 3.33789 1H13.6621ZM7.5 13.333C7.5 13.5313 7.50997 13.7277 7.5293 13.9209C7.51946 13.8226 7.51173 13.7237 7.50684 13.624L7.5 13.333Z" fill="#172226"/>
        </mask>
        <g mask="url(#mask0_2377_122)">
            <path d="M13.6623 1H3.33766C2.04661 1 1 2.07452 1 3.4V13.6C1 14.9255 2.04661 16 3.33766 16H13.6623C14.9534 16 16 14.9255 16 13.6V3.4C16 2.07452 14.9534 1 13.6623 1Z" fill="#172226"/>
            <path d="M12.0428 4.20001L7.43701 12.9852H9.26763L13.8571 4.20001H12.0428Z" fill="#3DF2B6"/>
            <path d="M7.9678 4.20001L4.84959 10.1472V6.71945H3.15235L3.14282 6.73761V12.9838H3.36196V12.9852H5.19258L9.7821 4.20001H7.9678Z" fill="#3DF2B6"/>
        </g>
    </g>
    <path d="M13.333 7.5C16.5546 7.5 19.1668 10.1115 19.167 13.333C19.167 16.5547 16.5547 19.167 13.333 19.167C10.1115 19.1668 7.5 16.5546 7.5 13.333C7.50016 10.1116 10.1116 7.50017 13.333 7.5ZM12.5 14.167L15 15.833L15.625 14.8086L13.75 13.542V10.833H12.5V14.167Z" fill="white"/>
    <defs>
        <clipPath id="clip0_2377_122">
            <rect width="15" height="15" fill="white" transform="translate(1 1)"/>
        </clipPath>
    </defs>
</svg>
