<svg width="19" height="16" viewBox="0 0 19 16" fill="none" xmlns="http://www.w3.org/2000/svg">
    <path d="M1.67969 2.39062V14.1094H16.6797V2.39062H1.67969ZM1.67969 15.75C1.23698 15.75 0.846354 15.5807 0.507812 15.2422C0.169271 14.9036 0 14.513 0 14.0703V2.42969C0 1.98698 0.169271 1.59635 0.507812 1.25781C0.846354 0.919271 1.23698 0.75 1.67969 0.75H16.6797C17.1224 0.75 17.513 0.919271 17.8516 1.25781C18.1901 1.59635 18.3594 1.98698 18.3594 2.42969V14.0703C18.3594 14.513 18.1901 14.9036 17.8516 15.2422C17.513 15.5807 17.1224 15.75 16.6797 15.75H1.67969ZM3.35938 12.4297V7.42969H10V12.4297H3.35938Z" fill="#007A50"/>
</svg>    